<svg id="Layer_1" data-name="Layer 1" xmlns="http://www.w3.org/2000/svg" xmlns:xlink="http://www.w3.org/1999/xlink" viewBox="0 0 165.76 113.17"><defs><style>.cls-1{fill:url(#New_Gradient_Swatch_3);}.cls-2{fill:url(#New_Gradient_Swatch_3-2);}.cls-3{fill:url(#New_Gradient_Swatch_3-3);}.cls-4{fill:url(#New_Gradient_Swatch_3-4);}.cls-5{fill:url(#New_Gradient_Swatch_3-5);}.cls-6{fill:url(#New_Gradient_Swatch_3-6);}.cls-7{fill:#262261;}</style><linearGradient id="New_Gradient_Swatch_3" x1="48.03" y1="141.46" x2="71.04" y2="141.46" gradientUnits="userSpaceOnUse"><stop offset="0" stop-color="#37b34a"/><stop offset="1" stop-color="#1a3f1d"/></linearGradient><linearGradient id="New_Gradient_Swatch_3-2" x1="69.5" y1="142.39" x2="100.08" y2="142.39" xlink:href="#New_Gradient_Swatch_3"/><linearGradient id="New_Gradient_Swatch_3-3" x1="98.29" y1="141.46" x2="121.29" y2="141.46" xlink:href="#New_Gradient_Swatch_3"/><linearGradient id="New_Gradient_Swatch_3-4" x1="50.08" y1="137.12" x2="213.79" y2="137.12" xlink:href="#New_Gradient_Swatch_3"/><linearGradient id="New_Gradient_Swatch_3-5" x1="148.78" y1="144.66" x2="171.04" y2="144.66" xlink:href="#New_Gradient_Swatch_3"/><linearGradient id="New_Gradient_Swatch_3-6" x1="174.13" y1="143.25" x2="196.37" y2="143.25" xlink:href="#New_Gradient_Swatch_3"/></defs><title>Untitled-1</title><path class="cls-1" d="M71,137.84H61.3V128.1a25.69,25.69,0,0,0-.31-5.3,1.32,1.32,0,0,0-1.37-1A1.47,1.47,0,0,0,58.09,123a28.58,28.58,0,0,0-.32,5.54v26a26.65,26.65,0,0,0,.32,5.33,1.44,1.44,0,0,0,1.46,1.25c.72,0,1.19-.42,1.42-1.25a30.75,30.75,0,0,0,.33-5.87v-7H71v2.18a64.24,64.24,0,0,1-.82,12.34,12.67,12.67,0,0,1-3.63,6.38,9.53,9.53,0,0,1-6.93,2.74,10.6,10.6,0,0,1-7-2.32,11.21,11.21,0,0,1-3.67-6.42A61.37,61.37,0,0,1,48,149.57V133.2c0-4,.1-7.06.28-9.08A16.82,16.82,0,0,1,50,118.29a11,11,0,0,1,3.82-4.42,9.94,9.94,0,0,1,5.6-1.61,10.27,10.27,0,0,1,7.1,2.49A11.72,11.72,0,0,1,70.16,121,55.28,55.28,0,0,1,71,132.52Z" transform="translate(-48.03 -60.28)"/><path class="cls-2" d="M91.35,113.05l8.73,58.67L87,150.48l-.52-6.73H83l-.59,6.73L69.5,171.72l7.78-58.67Zm-5.16,24.07q-.73-6.36-1.48-15.72-1.48,10.74-1.87,15.72Z" transform="translate(-48.03 -60.28)"/><path class="cls-3" d="M121.29,137.84h-9.73V128.1a25.69,25.69,0,0,0-.31-5.3,1.33,1.33,0,0,0-1.38-1,1.46,1.46,0,0,0-1.52,1.28,28.29,28.29,0,0,0-.33,5.54v26a26.38,26.38,0,0,0,.33,5.33,1.45,1.45,0,0,0,2.88,0,30.75,30.75,0,0,0,.33-5.87v-7h9.73v2.18q0,8.7-.82,12.34a12.52,12.52,0,0,1-3.63,6.38,9.51,9.51,0,0,1-6.92,2.74,10.6,10.6,0,0,1-7-2.32,11.22,11.22,0,0,1-3.68-6.42,62.29,62.29,0,0,1-.9-12.34V133.2q0-6,.28-9.08a16.39,16.39,0,0,1,1.65-5.83,11,11,0,0,1,3.82-4.42,9.94,9.94,0,0,1,5.6-1.61,10.29,10.29,0,0,1,7.1,2.49,11.78,11.78,0,0,1,3.68,6.21,55.44,55.44,0,0,1,.87,11.56Z" transform="translate(-48.03 -60.28)"/><path class="cls-4" d="M213.79,104.31l-68.2,7.49h-5.78v29.94l-9.73,28.18V111.8h-5.76l-74.24-7.49Z" transform="translate(-48.03 -60.28)"/><path class="cls-5" d="M171,115.86v37.7c0,4.27-.1,7.28-.28,9a15.61,15.61,0,0,1-1.64,5.33,10.06,10.06,0,0,1-3.6,4.14,9.54,9.54,0,0,1-5.26,1.42,10.61,10.61,0,0,1-9.75-6,15.89,15.89,0,0,1-1.5-5.66q-.24-3-.23-12.53V115.86h9.73v42.3a25.7,25.7,0,0,0,.26,4.72c.18.69.54,1,1.08,1s1-.38,1.19-1.13a31.1,31.1,0,0,0,.27-5.35V115.86Z" transform="translate(-48.03 -60.28)"/><path class="cls-6" d="M195.56,132.88h-9V129a10.51,10.51,0,0,0-.35-3.48,1.2,1.2,0,0,0-1.16-.74,1.42,1.42,0,0,0-1.32,1,7.88,7.88,0,0,0-.46,3.06,11.66,11.66,0,0,0,.51,4,8.81,8.81,0,0,0,2.75,3.22q6.49,5.42,8.19,8.89t1.69,11.21a27,27,0,0,1-.94,8.28,8.92,8.92,0,0,1-3.62,4.47,10.94,10.94,0,0,1-6.24,1.8,10.76,10.76,0,0,1-6.67-2.08,9.58,9.58,0,0,1-3.62-5.29,37.59,37.59,0,0,1-.85-9.13v-3.44h9v6.4a11.31,11.31,0,0,0,.38,3.79,1.35,1.35,0,0,0,1.35.85,1.53,1.53,0,0,0,1.44-1.07,8.18,8.18,0,0,0,.48-3.19c0-3.09-.3-5.12-.9-6.07a32.81,32.81,0,0,0-4.56-4.77,49.41,49.41,0,0,1-4.81-4.91,12.68,12.68,0,0,1-1.95-4.22,25.35,25.35,0,0,1-.77-6.88q0-6,1.09-8.84a9,9,0,0,1,3.55-4.37,10.74,10.74,0,0,1,5.92-1.57,11.64,11.64,0,0,1,6.46,1.72,8.24,8.24,0,0,1,3.54,4.33q.87,2.63.87,8.89Z" transform="translate(-48.03 -60.28)"/><path class="cls-7" d="M145.67,76a18.08,18.08,0,0,1-1.84.86c-4.65,1.63-9.32,3.19-14,4.86a3.78,3.78,0,0,1-2.69,0c-5.76-2-11.53-4-17.3-6-3.51-1.22-7-2.48-10.54-3.67-.92-.32-1-.92-1.06-1.76a1.34,1.34,0,0,1,1.1-1.41q12-3.66,24-7.27c1.81-.55,3.55-1.47,5.5-1.23a24.19,24.19,0,0,1,4.11.93q12.3,3.72,24.59,7.53a2.62,2.62,0,0,1,1.16.63c.8.87.39,2.06-.83,2.51-1.55.57-3.1,1.14-4.68,1.63A1.28,1.28,0,0,0,152.19,75c.06,2.74.07,5.48,0,8.21a2.81,2.81,0,0,0,1,2.46,1.89,1.89,0,0,1,.25,2.46,2.4,2.4,0,0,1-2.76,1.08,2.33,2.33,0,0,1-.8-4,1.85,1.85,0,0,0,.5-1.12c0-2.84,0-5.68,0-8.52,0-.73-.24-1-1-1.14-4.22-1-8.43-2-12.64-3-2.08-.49-4.16-.95-6.22-1.46-.72-.18-1.24-.12-1.45.67s.32,1.09,1,1.24l14.76,3.51c.27.07.54.17.82.26Z" transform="translate(-48.03 -60.28)"/><path class="cls-7" d="M111.09,78.54c2.34-.16,4.3,1,6.38,1.66a53.13,53.13,0,0,1,8.06,2.85c2.83,1.42,5.2.27,7.7-.56s5.18-1.82,7.78-2.68c1.49-.49,3-.87,4.52-1.28.74-.21,1,.19,1,.88,0,3.52.06,7-.1,10.55-.07,1.71-1.46,2.78-2.75,3.71a19,19,0,0,1-8.46,3,43,43,0,0,1-15-.27A17.75,17.75,0,0,1,113.69,94a18.41,18.41,0,0,1-2.43-2.25,1,1,0,0,1-.22-.65c0-4.09,0-8.17-.06-12.26C111,78.74,111,78.68,111.09,78.54Z" transform="translate(-48.03 -60.28)"/><path class="cls-7" d="M151.34,102.5c-2.84,0-2.92,0-2.82-2.81.1-2.56.37-5.12.63-7.68,0-.23.49-.57.77-.6.92-.09,1.85-.07,2.78-.08.56,0,.8.24.87.87.31,2.82.7,5.63,1.05,8.45.17,1.35-.26,1.84-1.62,1.85Z" transform="translate(-48.03 -60.28)"/></svg>